<svg xmlns="http://www.w3.org/2000/svg" width="630" height="629" viewBox="0 0 630 629" version="1.1"><path d="M 207.472 195.964 C 197.037 201.995, 185.575 208.544, 182 210.518 C 178.425 212.493, 172.575 215.815, 169 217.901 C 160.676 222.758, 132.172 239.316, 125 243.460 C 121.975 245.209, 118.487 247.278, 117.250 248.060 L 115 249.481 115 314.250 L 115 379.019 118.750 381.571 C 120.813 382.975, 127.900 387.246, 134.500 391.062 C 141.100 394.879, 147.175 398.423, 148 398.939 C 148.825 399.454, 154.450 402.681, 160.500 406.110 C 173.535 413.498, 182.999 418.953, 188.500 422.249 C 190.700 423.567, 195.762 426.526, 199.750 428.823 C 203.738 431.120, 210.037 434.768, 213.750 436.929 C 217.463 439.089, 222.144 441.627, 224.154 442.568 C 227.730 444.242, 227.900 444.226, 232.154 441.804 C 236.336 439.424, 262.076 424.472, 274.500 417.207 C 280.273 413.831, 287.743 409.540, 300.500 402.270 C 303.800 400.389, 309.875 396.869, 314 394.446 C 318.125 392.023, 323.300 389.069, 325.500 387.882 C 327.700 386.694, 331.858 384.218, 334.741 382.379 L 339.982 379.037 340.241 328.377 C 340.465 284.564, 340.703 277.605, 342 276.888 C 342.825 276.431, 347.550 273.729, 352.500 270.882 C 357.450 268.036, 364.425 264.041, 368 262.005 C 377.936 256.345, 387.779 250.665, 395.415 246.185 L 402.330 242.128 405.915 244.103 C 407.887 245.189, 411.075 247.022, 413 248.177 C 414.925 249.331, 419.650 252.082, 423.500 254.289 C 439.417 263.414, 443.969 266.042, 453.500 271.608 C 459 274.820, 463.834 277.910, 464.242 278.474 C 464.650 279.038, 464.875 295.614, 464.742 315.309 L 464.500 351.118 450.500 359.230 C 442.800 363.691, 433.575 369.040, 430 371.117 C 426.425 373.193, 420.575 376.513, 417 378.494 C 413.425 380.476, 408.706 383.179, 406.514 384.502 L 402.529 386.908 398.514 384.615 C 396.306 383.354, 387.338 378.200, 378.585 373.161 C 369.831 368.122, 362.631 363.999, 362.585 363.998 C 362.538 363.998, 362.635 370.445, 362.799 378.327 L 363.099 392.656 355.299 397.201 C 351.010 399.700, 345.287 403.014, 342.583 404.566 C 338.904 406.676, 338.022 407.600, 339.083 408.234 C 342.791 410.452, 365.123 423.263, 370 425.970 C 373.025 427.649, 379.325 431.268, 384 434.012 C 388.675 436.756, 394.819 440.198, 397.653 441.661 L 402.807 444.322 413.153 438.506 C 418.844 435.307, 425.525 431.482, 428 430.007 C 430.475 428.532, 435.875 425.375, 440 422.992 C 444.125 420.608, 451.100 416.549, 455.500 413.971 C 459.900 411.394, 466.650 407.483, 470.500 405.281 C 474.350 403.078, 479.075 400.331, 481 399.175 C 482.925 398.020, 486.603 395.943, 489.173 394.559 C 491.743 393.176, 495.428 391.022, 497.362 389.772 C 499.296 388.523, 504.066 385.700, 507.962 383.500 L 515.045 379.500 514.773 314.769 L 514.500 250.038 512.021 248.269 C 509.376 246.382, 494.616 237.738, 460.067 217.843 C 448.278 211.054, 435.453 203.618, 431.567 201.318 C 423.535 196.566, 414.835 191.570, 407.436 187.461 L 402.371 184.649 396.936 187.678 C 389.585 191.774, 378.875 197.895, 371 202.500 C 367.425 204.591, 361.575 207.969, 358 210.006 C 352.651 213.055, 325.474 228.812, 320 232.038 C 316.493 234.105, 302.987 241.943, 296.750 245.532 L 290 249.416 290 299.553 C 290 346.062, 289.873 349.799, 288.250 351.197 C 286.448 352.748, 279.485 356.867, 251 373.235 C 241.925 378.449, 232.811 383.725, 230.746 384.959 L 226.991 387.203 222.246 384.259 C 219.636 382.640, 212.550 378.478, 206.500 375.011 C 200.450 371.543, 193.903 367.700, 191.950 366.471 C 189.998 365.242, 186.173 363.031, 183.450 361.558 C 180.728 360.085, 175.575 357.213, 172 355.175 L 165.500 351.471 165.238 314.767 L 164.975 278.062 167.238 276.691 C 168.482 275.937, 172.650 273.516, 176.500 271.311 C 180.350 269.106, 186.650 265.498, 190.500 263.293 C 194.350 261.088, 204.163 255.359, 212.306 250.561 L 227.113 241.839 234.306 246.099 C 238.263 248.443, 243.975 251.805, 247 253.570 C 250.025 255.336, 255.650 258.626, 259.500 260.880 L 266.500 264.979 267 250.287 L 267.500 235.594 274 231.789 C 277.575 229.697, 282.863 226.769, 285.750 225.284 C 288.637 223.799, 291 222.261, 291 221.867 C 291 221.473, 288.637 219.834, 285.750 218.226 C 282.863 216.618, 278.250 214.048, 275.500 212.514 C 272.750 210.981, 268.925 208.724, 267 207.499 C 259.755 202.888, 228.237 185, 227.360 185 C 226.856 185, 217.907 189.934, 207.472 195.964" stroke="none" fill="#fafafa" fill-rule="evenodd"/><path d="M 84.500 11 C 84.160 11.550, 82.135 12, 80 12 C 77.865 12, 75.872 12.398, 75.571 12.885 C 75.271 13.371, 72.994 14.074, 70.512 14.446 C 68.031 14.818, 66 15.495, 66 15.950 C 66 16.405, 64.425 17.073, 62.500 17.434 C 60.575 17.795, 58.995 18.408, 58.989 18.795 C 58.982 19.183, 57.182 20.360, 54.989 21.411 C 52.795 22.462, 51 23.699, 51 24.161 C 51 24.622, 50.348 25, 49.551 25 C 48.026 25, 32.241 40.111, 27.744 45.876 C 26.296 47.732, 23.849 51.782, 22.306 54.876 C 20.763 57.969, 19.163 60.650, 18.750 60.833 C 18.338 61.017, 17.997 61.917, 17.994 62.833 C 17.990 63.750, 17.363 65.697, 16.600 67.159 C 15.837 68.622, 14.888 72.222, 14.491 75.159 C 14.094 78.097, 13.367 81.266, 12.875 82.202 C 11.661 84.514, 11.633 542.437, 12.848 544.745 C 13.355 545.710, 14.092 549.313, 14.484 552.750 C 14.876 556.187, 15.597 559, 16.086 559 C 16.576 559, 17.264 560.800, 17.616 563 C 17.968 565.200, 18.536 567.005, 18.878 567.011 C 19.220 567.018, 20.393 568.930, 21.485 571.261 C 22.577 573.593, 23.712 575.725, 24.008 576 C 24.304 576.275, 25.400 577.838, 26.443 579.474 C 29.163 583.739, 29.778 584.452, 37.112 591.840 C 44.370 599.150, 47.346 601.642, 50.750 603.255 C 51.987 603.841, 53 604.663, 53 605.081 C 53 605.499, 54.350 606.138, 56 606.500 C 57.650 606.862, 59 607.573, 59 608.079 C 59 608.586, 59.675 609, 60.500 609 C 61.325 609, 62 609.410, 62 609.912 C 62 610.414, 63.800 611.128, 66 611.500 C 68.200 611.872, 70 612.523, 70 612.947 C 70 613.371, 73.263 614.309, 77.250 615.030 C 87.937 616.964, 542.063 616.964, 552.750 615.030 C 556.737 614.309, 560 613.371, 560 612.947 C 560 612.523, 561.800 611.872, 564 611.500 C 566.200 611.128, 568 610.414, 568 609.912 C 568 609.410, 568.675 609, 569.500 609 C 570.325 609, 571 608.586, 571 608.079 C 571 607.573, 572.350 606.862, 574 606.500 C 575.650 606.138, 577 605.499, 577 605.081 C 577 604.663, 578.013 603.841, 579.250 603.255 C 582.654 601.642, 585.630 599.150, 592.888 591.840 C 600.222 584.452, 600.837 583.739, 603.557 579.474 C 604.600 577.838, 605.696 576.275, 605.992 576 C 606.288 575.725, 607.423 573.593, 608.515 571.261 C 609.607 568.930, 610.780 567.018, 611.122 567.011 C 611.464 567.005, 612.032 565.200, 612.384 563 C 612.736 560.800, 613.405 559, 613.871 559 C 614.337 559, 615.305 555.737, 616.021 551.750 C 617.032 546.120, 617.459 511.868, 617.931 398.500 C 618.269 317.096, 618.933 251.394, 619.431 250 C 619.923 248.625, 620.814 247.169, 621.412 246.765 C 622.079 246.315, 621.832 246.025, 620.775 246.015 C 619.373 246.003, 619.164 245.392, 619.657 242.750 C 619.991 240.962, 620.655 239.073, 621.132 238.550 C 622.555 236.993, 622.127 235.014, 620.502 235.637 C 619.451 236.041, 618.964 235.510, 618.869 233.856 C 618.794 232.560, 618.425 197.975, 618.048 157 C 617.353 81.473, 617.038 75.374, 613.420 67.349 C 612.639 65.616, 612 63.516, 612 62.682 C 612 61.849, 611.662 61.017, 611.250 60.833 C 610.837 60.650, 609.237 57.969, 607.694 54.876 C 606.151 51.782, 603.704 47.732, 602.256 45.876 C 597.759 40.111, 581.974 25, 580.449 25 C 579.652 25, 579 24.622, 579 24.161 C 579 23.699, 577.205 22.462, 575.011 21.411 C 572.818 20.360, 571.018 19.183, 571.011 18.795 C 571.005 18.408, 569.425 17.795, 567.500 17.434 C 565.575 17.073, 564 16.405, 564 15.950 C 564 15.495, 561.969 14.818, 559.488 14.446 C 557.006 14.074, 554.729 13.371, 554.429 12.885 C 554.128 12.398, 552.135 12, 550 12 C 547.865 12, 545.840 11.550, 545.500 11 C 544.644 9.614, 85.356 9.614, 84.500 11 M 207.472 195.964 C 197.037 201.995, 185.575 208.544, 182 210.518 C 178.425 212.493, 172.575 215.815, 169 217.901 C 160.676 222.758, 132.172 239.316, 125 243.460 C 121.975 245.209, 118.487 247.278, 117.250 248.060 L 115 249.481 115 314.250 L 115 379.019 118.750 381.571 C 120.813 382.975, 127.900 387.246, 134.500 391.062 C 141.100 394.879, 147.175 398.423, 148 398.939 C 148.825 399.454, 154.450 402.681, 160.500 406.110 C 173.535 413.498, 182.999 418.953, 188.500 422.249 C 190.700 423.567, 195.762 426.526, 199.750 428.823 C 203.738 431.120, 210.037 434.768, 213.750 436.929 C 217.463 439.089, 222.144 441.627, 224.154 442.568 C 227.730 444.242, 227.900 444.226, 232.154 441.804 C 236.336 439.424, 262.076 424.472, 274.500 417.207 C 280.273 413.831, 287.743 409.540, 300.500 402.270 C 303.800 400.389, 309.875 396.869, 314 394.446 C 318.125 392.023, 323.300 389.069, 325.500 387.882 C 327.700 386.694, 331.858 384.218, 334.741 382.379 L 339.982 379.037 340.241 328.377 C 340.465 284.564, 340.703 277.605, 342 276.888 C 342.825 276.431, 347.550 273.729, 352.500 270.882 C 357.450 268.036, 364.425 264.041, 368 262.005 C 377.936 256.345, 387.779 250.665, 395.415 246.185 L 402.330 242.128 405.915 244.103 C 407.887 245.189, 411.075 247.022, 413 248.177 C 414.925 249.331, 419.650 252.082, 423.500 254.289 C 439.417 263.414, 443.969 266.042, 453.500 271.608 C 459 274.820, 463.834 277.910, 464.242 278.474 C 464.650 279.038, 464.875 295.614, 464.742 315.309 L 464.500 351.118 450.500 359.230 C 442.800 363.691, 433.575 369.040, 430 371.117 C 426.425 373.193, 420.575 376.513, 417 378.494 C 413.425 380.476, 408.706 383.179, 406.514 384.502 L 402.529 386.908 398.514 384.615 C 396.306 383.354, 387.338 378.200, 378.585 373.161 C 369.831 368.122, 362.631 363.999, 362.585 363.998 C 362.538 363.998, 362.635 370.445, 362.799 378.327 L 363.099 392.656 355.299 397.201 C 351.010 399.700, 345.287 403.014, 342.583 404.566 C 338.904 406.676, 338.022 407.600, 339.083 408.234 C 342.791 410.452, 365.123 423.263, 370 425.970 C 373.025 427.649, 379.325 431.268, 384 434.012 C 388.675 436.756, 394.819 440.198, 397.653 441.661 L 402.807 444.322 413.153 438.506 C 418.844 435.307, 425.525 431.482, 428 430.007 C 430.475 428.532, 435.875 425.375, 440 422.992 C 444.125 420.608, 451.100 416.549, 455.500 413.971 C 459.900 411.394, 466.650 407.483, 470.500 405.281 C 474.350 403.078, 479.075 400.331, 481 399.175 C 482.925 398.020, 486.603 395.943, 489.173 394.559 C 491.743 393.176, 495.428 391.022, 497.362 389.772 C 499.296 388.523, 504.066 385.700, 507.962 383.500 L 515.045 379.500 514.773 314.769 L 514.500 250.038 512.021 248.269 C 509.376 246.382, 494.616 237.738, 460.067 217.843 C 448.278 211.054, 435.453 203.618, 431.567 201.318 C 423.535 196.566, 414.835 191.570, 407.436 187.461 L 402.371 184.649 396.936 187.678 C 389.585 191.774, 378.875 197.895, 371 202.500 C 367.425 204.591, 361.575 207.969, 358 210.006 C 352.651 213.055, 325.474 228.812, 320 232.038 C 316.493 234.105, 302.987 241.943, 296.750 245.532 L 290 249.416 290 299.553 C 290 346.062, 289.873 349.799, 288.250 351.197 C 286.448 352.748, 279.485 356.867, 251 373.235 C 241.925 378.449, 232.811 383.725, 230.746 384.959 L 226.991 387.203 222.246 384.259 C 219.636 382.640, 212.550 378.478, 206.500 375.011 C 200.450 371.543, 193.903 367.700, 191.950 366.471 C 189.998 365.242, 186.173 363.031, 183.450 361.558 C 180.728 360.085, 175.575 357.213, 172 355.175 L 165.500 351.471 165.238 314.767 L 164.975 278.062 167.238 276.691 C 168.482 275.937, 172.650 273.516, 176.500 271.311 C 180.350 269.106, 186.650 265.498, 190.500 263.293 C 194.350 261.088, 204.163 255.359, 212.306 250.561 L 227.113 241.839 234.306 246.099 C 238.263 248.443, 243.975 251.805, 247 253.570 C 250.025 255.336, 255.650 258.626, 259.500 260.880 L 266.500 264.979 267 250.287 L 267.500 235.594 274 231.789 C 277.575 229.697, 282.863 226.769, 285.750 225.284 C 288.637 223.799, 291 222.261, 291 221.867 C 291 221.473, 288.637 219.834, 285.750 218.226 C 282.863 216.618, 278.250 214.048, 275.500 212.514 C 272.750 210.981, 268.925 208.724, 267 207.499 C 259.755 202.888, 228.237 185, 227.360 185 C 226.856 185, 217.907 189.934, 207.472 195.964" stroke="none" fill="#24146c" fill-rule="evenodd"/></svg>